<svg width="49" height="43" viewBox="0 0 49 43" fill="none" xmlns="http://www.w3.org/2000/svg">
<path d="M19.5041 42.2236H0.619141L5.30219 19.0879L6.92945 19.417L2.64887 40.5636H17.4744L13.1946 19.4166L14.8219 19.0875L19.5041 42.2236ZM42.9752 11.6103C39.7948 11.6103 37.2074 9.00586 37.2074 5.80474C37.2074 2.60404 39.7948 0 42.9752 0C46.1552 0 48.7423 2.60404 48.7423 5.80474C48.7423 9.00586 46.1552 11.6103 42.9752 11.6103ZM42.9752 1.65998C40.7103 1.65998 38.8677 3.51912 38.8677 5.80433C38.8677 8.09037 40.7103 9.94992 42.9752 9.94992C45.2398 9.94992 47.0823 8.08995 47.0823 5.80433C47.0823 3.51953 45.2398 1.65998 42.9752 1.65998Z" fill="#121212"/>
</svg>
