<svg width="158" height="28" viewBox="0 0 158 28" fill="none" xmlns="http://www.w3.org/2000/svg">
<path d="M13.932 27.612C12.972 27.612 12.132 27.408 11.412 27C10.716 26.616 10.368 25.932 10.368 24.948C10.368 24.324 10.524 23.628 10.836 22.86C11.268 23.34 11.664 23.676 12.024 23.868C12.408 24.06 12.816 24.156 13.248 24.156C14.448 24.156 15.336 23.484 15.912 22.14C16.512 20.796 16.812 19.308 16.812 17.676C16.812 14.628 15.672 13.104 13.392 13.104C12.744 13.104 12.192 13.14 11.736 13.212L8.784 27H3.6L8.496 4.104L13.824 3.384L12.132 11.376H12.348C13.26 11.376 14.112 11.088 14.904 10.512C15.696 9.912 16.332 9.168 16.812 8.28C17.292 7.368 17.532 6.456 17.532 5.544C17.532 4.44 17.136 3.516 16.344 2.772C15.576 2.028 14.388 1.656 12.78 1.656C11.316 1.656 9.888 1.992 8.496 2.664C7.104 3.312 5.964 4.296 5.076 5.616C4.212 6.936 3.78 8.532 3.78 10.404C3.78 11.292 3.864 11.916 4.032 12.276C4.2 12.612 4.284 12.804 4.284 12.852C3.012 12.852 2.052 12.6 1.404 12.096C0.756 11.568 0.432 10.716 0.432 9.54C0.432 7.908 1.044 6.36 2.268 4.896C3.492 3.432 5.112 2.256 7.128 1.368C9.144 0.455998 11.268 -2.14577e-06 13.5 -2.14577e-06C15.18 -2.14577e-06 16.596 0.263998 17.748 0.791998C18.9 1.32 19.752 2.016 20.304 2.88C20.88 3.744 21.168 4.692 21.168 5.724C21.168 6.828 20.856 7.896 20.232 8.928C19.608 9.96 18.72 10.8 17.568 11.448C19.008 11.712 20.076 12.384 20.772 13.464C21.468 14.52 21.816 15.78 21.816 17.244C21.816 18.612 21.552 20.1 21.024 21.708C20.52 23.316 19.668 24.708 18.468 25.884C17.292 27.036 15.78 27.612 13.932 27.612ZM28.7105 27.216C26.9345 27.216 25.5545 26.76 24.5705 25.848C23.5865 24.912 23.0945 23.46 23.0945 21.492C23.0945 19.836 23.4185 18.012 24.0665 16.02C24.7145 14.028 25.7705 12.312 27.2345 10.872C28.6985 9.408 30.5585 8.676 32.8145 8.676C35.4545 8.676 36.7745 9.828 36.7745 12.132C36.7745 13.476 36.3905 14.712 35.6225 15.84C34.8545 16.968 33.8345 17.88 32.5625 18.576C31.2905 19.248 29.9345 19.632 28.4945 19.728C28.4465 20.448 28.4225 20.928 28.4225 21.168C28.4225 22.344 28.6265 23.148 29.0345 23.58C29.4425 23.988 30.1025 24.192 31.0145 24.192C32.3105 24.192 33.4145 23.892 34.3265 23.292C35.2625 22.692 36.2825 21.78 37.3865 20.556H38.6105C35.9465 24.996 32.6465 27.216 28.7105 27.216ZM28.7825 18C29.6705 17.952 30.5105 17.64 31.3025 17.064C32.1185 16.488 32.7665 15.756 33.2465 14.868C33.7505 13.98 34.0025 13.044 34.0025 12.06C34.0025 11.076 33.7025 10.584 33.1025 10.584C32.2385 10.584 31.3865 11.34 30.5465 12.852C29.7305 14.364 29.1425 16.08 28.7825 18ZM55.0036 2.52C53.3956 3.192 52.1476 4.2 51.2596 5.544C50.3956 6.888 49.9636 8.508 49.9636 10.404C49.9636 11.292 50.0476 11.916 50.2156 12.276C50.3836 12.612 50.4676 12.804 50.4676 12.852C49.1716 12.852 48.1996 12.588 47.5516 12.06C46.9276 11.508 46.6156 10.608 46.6156 9.36C46.6156 7.824 47.2396 6.336 48.4876 4.896C49.7596 3.432 51.3796 2.256 53.3476 1.368C55.3156 0.455998 57.2836 -2.14577e-06 59.2516 -2.14577e-06C59.5876 -2.14577e-06 60.0676 0.0239983 60.6916 0.0719991L58.3876 10.8H63.6796L65.9836 0.0719991H71.1676L65.4436 27H60.2596L63.1396 13.464H57.8476L54.9676 27H49.7836L55.0036 2.52ZM74.189 27.216C73.037 27.216 72.101 26.856 71.381 26.136C70.685 25.416 70.337 24.336 70.337 22.896C70.337 22.296 70.433 21.516 70.625 20.556L73.073 9H78.257L75.665 21.24C75.593 21.6 75.557 21.936 75.557 22.248C75.557 23.232 75.917 23.724 76.637 23.724C77.309 23.724 77.885 23.448 78.365 22.896C78.845 22.32 79.229 21.54 79.517 20.556L81.965 9H87.149L84.557 21.24C84.461 21.6 84.413 21.984 84.413 22.392C84.413 22.872 84.521 23.22 84.737 23.436C84.977 23.628 85.361 23.724 85.889 23.724C86.561 23.724 87.137 23.436 87.617 22.86C88.121 22.284 88.517 21.516 88.805 20.556H90.317C89.429 23.148 88.325 24.912 87.005 25.848C85.709 26.76 84.401 27.216 83.081 27.216C82.049 27.216 81.221 26.928 80.597 26.352C79.997 25.776 79.637 24.924 79.517 23.796C78.701 25.116 77.837 26.016 76.925 26.496C76.037 26.976 75.125 27.216 74.189 27.216ZM111.189 27.216C109.725 27.216 108.645 26.832 107.949 26.064C107.277 25.272 106.941 24.3 106.941 23.148C106.941 22.644 107.001 22.08 107.121 21.456C107.241 20.808 107.361 20.184 107.481 19.584C107.625 18.984 107.721 18.6 107.769 18.432C107.961 17.592 108.141 16.764 108.309 15.948C108.477 15.132 108.561 14.472 108.561 13.968C108.561 12.744 108.129 12.132 107.265 12.132C106.641 12.132 106.089 12.444 105.609 13.068C105.129 13.668 104.745 14.46 104.457 15.444L102.009 27H96.8248L99.4528 14.58C99.5248 14.292 99.5608 13.992 99.5608 13.68C99.5608 12.624 99.2008 12.096 98.4808 12.096C97.8088 12.096 97.2208 12.408 96.7168 13.032C96.2368 13.632 95.8528 14.436 95.5648 15.444L93.1168 27H87.9328L91.7488 9H96.9328L96.5368 10.872C97.7608 9.504 99.2248 8.82 100.929 8.82C103.041 8.82 104.277 9.852 104.637 11.916C105.957 9.876 107.625 8.856 109.641 8.856C110.865 8.856 111.837 9.192 112.557 9.864C113.277 10.536 113.637 11.556 113.637 12.924C113.637 13.62 113.553 14.4 113.385 15.264C113.217 16.104 112.977 17.136 112.665 18.36C112.473 19.104 112.293 19.836 112.125 20.556C111.981 21.252 111.909 21.804 111.909 22.212C111.909 22.692 112.017 23.064 112.233 23.328C112.449 23.592 112.821 23.724 113.349 23.724C114.069 23.724 114.645 23.472 115.077 22.968C115.509 22.44 115.941 21.636 116.373 20.556H117.885C116.997 23.196 115.965 24.972 114.789 25.884C113.637 26.772 112.437 27.216 111.189 27.216ZM121.659 27.216C120.027 27.216 118.779 26.82 117.915 26.028C117.051 25.212 116.619 24.072 116.619 22.608C116.619 21.888 116.703 21.204 116.871 20.556L120.723 2.52L126.051 1.8L124.323 9.9C124.995 9.492 125.547 9.228 125.979 9.108C126.411 8.964 126.843 8.892 127.275 8.892C130.107 8.892 131.523 10.944 131.523 15.048C131.523 16.704 131.199 18.48 130.551 20.376C129.927 22.248 128.871 23.856 127.383 25.2C125.919 26.544 124.011 27.216 121.659 27.216ZM123.675 23.724C124.419 23.724 125.115 23.268 125.763 22.356C126.411 21.42 126.927 20.268 127.311 18.9C127.695 17.508 127.887 16.176 127.887 14.904C127.887 13.944 127.719 13.128 127.383 12.456C127.047 11.784 126.579 11.448 125.979 11.448C125.619 11.448 125.211 11.508 124.755 11.628C124.323 11.724 124.023 11.88 123.855 12.096L121.875 21.24C121.803 21.528 121.767 21.804 121.767 22.068C121.767 23.172 122.403 23.724 123.675 23.724ZM136.931 27.216C135.779 27.216 134.843 26.856 134.123 26.136C133.427 25.416 133.079 24.336 133.079 22.896C133.079 22.296 133.175 21.516 133.367 20.556L137.219 2.52L142.547 1.8L138.407 21.24C138.311 21.6 138.263 21.984 138.263 22.392C138.263 22.872 138.371 23.22 138.587 23.436C138.827 23.628 139.211 23.724 139.739 23.724C140.435 23.724 141.083 23.436 141.683 22.86C142.283 22.26 142.715 21.492 142.979 20.556H144.491C143.603 23.148 142.463 24.912 141.071 25.848C139.679 26.76 138.299 27.216 136.931 27.216ZM148.613 27.216C146.837 27.216 145.457 26.76 144.473 25.848C143.489 24.912 142.997 23.46 142.997 21.492C142.997 19.836 143.321 18.012 143.969 16.02C144.617 14.028 145.673 12.312 147.137 10.872C148.601 9.408 150.461 8.676 152.717 8.676C155.357 8.676 156.677 9.828 156.677 12.132C156.677 13.476 156.293 14.712 155.525 15.84C154.757 16.968 153.737 17.88 152.465 18.576C151.193 19.248 149.837 19.632 148.397 19.728C148.349 20.448 148.325 20.928 148.325 21.168C148.325 22.344 148.529 23.148 148.937 23.58C149.345 23.988 150.005 24.192 150.917 24.192C152.213 24.192 153.317 23.892 154.229 23.292C155.165 22.692 156.185 21.78 157.289 20.556H158.513C155.849 24.996 152.549 27.216 148.613 27.216ZM148.685 18C149.573 17.952 150.413 17.64 151.205 17.064C152.021 16.488 152.669 15.756 153.149 14.868C153.653 13.98 153.905 13.044 153.905 12.06C153.905 11.076 153.605 10.584 153.005 10.584C152.141 10.584 151.289 11.34 150.449 12.852C149.633 14.364 149.045 16.08 148.685 18Z" fill="#FF5959"/>
</svg>
